<?xml version="1.0" encoding="utf-8"?>
<!-- Generator: Adobe Illustrator 19.0.0, SVG Export Plug-In . SVG Version: 6.00 Build 0)  -->
<svg version="1.1" id="Layer_2" xmlns="http://www.w3.org/2000/svg" xmlns:xlink="http://www.w3.org/1999/xlink" x="0px" y="0px"
	 viewBox="0 0 384.5 748.3" style="enable-background:new 0 0 384.5 748.3;" xml:space="preserve">
<style type="text/css">
	.st0{fill:none;stroke:#ACB1B5;stroke-miterlimit:10;}
</style>
<g id="XMLID_97_">
	<path id="XMLID_25_" class="st0" d="M315.9,740.1H68.6c-31.5,0-57.3-25.8-57.3-57.3V65.6C11.2,34.1,37,8.2,68.6,8.2h247.4
		c31.5,0,57.3,25.8,57.3,57.3v617.2C373.3,714.3,347.5,740.1,315.9,740.1z"/>
	<path id="XMLID_24_" class="st0" d="M373.3,179v84c2.8-0.7,4.2-2.7,4.2-5v-74C377.5,181.6,376.1,179.7,373.3,179z"/>
	<path id="XMLID_23_" class="st0" d="M11.2,279.9v-54.4c-2.8,0.7-4.2,2.7-4.2,5v44.4C7,277.2,8.4,279.2,11.2,279.9z"/>
	<path id="XMLID_22_" class="st0" d="M11.2,212.2v-54.4c-2.8,0.7-4.2,2.7-4.2,5v44.4C7,209.6,8.4,211.6,11.2,212.2z"/>
	<path id="XMLID_21_" class="st0" d="M11.2,134.8v-27.6c-2.8,0.7-4.2,2.7-4.2,5v17.6C7,132.1,8.4,134.1,11.2,134.8z"/>
</g>
</svg>
